<?xml version="1.0" encoding="utf-8"?>
<!-- Generator: Adobe Illustrator 26.0.0, SVG Export Plug-In . SVG Version: 6.00 Build 0)  -->
<svg version="1.1" id="Layer_1" xmlns="http://www.w3.org/2000/svg" xmlns:xlink="http://www.w3.org/1999/xlink" x="0px" y="0px"
	 viewBox="0 0 1080 1080" style="enable-background:new 0 0 1080 1080;" xml:space="preserve">
<style type="text/css">
	.st0{fill:#311D54;}
	.st1{fill:#831919;}
	.st2{fill:none;}
</style>
<g>
	<path d="M412.04,436.77L412.04,436.77z"/>
</g>
<g>
	<path class="st0" d="M552.68,436.77l-20.2,37.87L442.06,644.1h-60.13l-5.06-0.01c-2.63-1.24,72.67-137.89,87.49-164.76l0.02-0.01
		c0.12-0.22,0.25-0.43,0.35-0.64c1.4-2.52,2.17-3.91,2.17-3.91h-72.64l22.43-38H552.68z"/>
</g>
<g>
	<path d="M466.82,474.63L466.82,474.63z"/>
</g>
<g>
	<path d="M466.82,474.63L466.82,474.63z"/>
</g>
<g>
	<path d="M392.22,480.08L392.22,480.08z"/>
</g>
<g>
	<path class="st0" d="M538.39,474.63c0.47-1.12,0.47-1.12,0.47-1.12l0,0l19.74-36.74h138.2l-19.28,37.86H538.39z"/>
</g>
<g>
	<polygon class="st0" points="557.63,554.62 530.75,606.23 608.44,606.23 589.16,644.09 449.24,644.1 476.9,592.42 516.58,516.22 
		549.54,516.76 656.11,516.64 636.88,554.52 	"/>
</g>
<g>
	<path d="M654.1,644.09c-0.08,0.01-0.17,0.01-0.25,0.03v-0.03H654.1z"/>
</g>
<g>
	<path d="M657.85,644.09c-0.37,0.04-0.72,0.1-1.05,0.18c-0.32-0.07-0.63-0.13-0.97-0.18H657.85z"/>
</g>
<g>
	<path d="M660.35,644.09l-0.05,0.1c-0.23-0.04-0.46-0.07-0.71-0.1H660.35z"/>
</g>
<g>
	<path d="M865.95,436.98L865.95,436.98z"/>
</g>
<g>
	<path d="M653.85,644.09h0.25c-0.08,0.01-0.17,0.01-0.25,0.03V644.09z"/>
</g>
<g>
	<path d="M655.83,644.09h2.01c-0.37,0.04-0.72,0.1-1.05,0.18C656.48,644.19,656.17,644.13,655.83,644.09z"/>
</g>
<g>
	<path d="M659.6,644.09h0.75l-0.05,0.1C660.08,644.15,659.85,644.12,659.6,644.09z"/>
</g>
<g>
	<polygon points="781.71,436.77 704.08,436.77 684.34,473.51 703,436.58 	"/>
</g>
<g>
	<path d="M516.57,516.22L516.57,516.22z"/>
</g>
<g>
	<g>
		<polygon class="st1" points="457.28,480.18 367.28,644.19 327,644.19 213.23,436.86 269.73,436.86 269.64,436.68 280.92,436.68 
			346.49,564.4 390.86,480.18 		"/>
	</g>
</g>
<g>
	<line class="st2" x1="842.27" y1="436.77" x2="842.2" y2="436.92"/>
</g>
<g>
	<path class="st0" d="M822.99,474.84l19.28-37.93h-0.08l-60.48-0.15h-77.64l-19.74,36.74c0,0,0,0-0.03,0.06l-86.28,170.72h54.64
		c0.26-0.03,0.54-0.04,0.81-0.04c0.25,0,0.48,0.01,0.71,0.03c0.06,0,0.12,0.01,0.17,0.01h2.11c0.25-0.03,0.51-0.04,0.78-0.04
		c0.29,0,0.54,0.01,0.81,0.04h83.16l19.66-34.97L677,609.34l69.74-134.5H822.99z M653.85,644.12v-0.03h0.25
		C654.02,644.1,653.93,644.1,653.85,644.12z M656.8,644.27c-0.32-0.07-0.63-0.13-0.97-0.18h2.01
		C657.48,644.13,657.13,644.19,656.8,644.27z M660.31,644.19c-0.23-0.04-0.46-0.07-0.71-0.1h0.75L660.31,644.19z"/>
</g>
<g>
	<polygon points="842.27,436.77 842.2,436.92 781.71,436.77 	"/>
</g>
</svg>
